<mxfile host="app.diagrams.net" modified="2025-03-07T07:20:22.111Z" agent="Mozilla/5.0 (Macintosh; Intel Mac OS X 10_15_7) AppleWebKit/537.36 (KHTML, like Gecko) Chrome/133.0.0.0 Safari/537.36" version="24.5.4" etag="wFct6-yj_kvkOTU_nF_w" type="github">
  <diagram name="Page-1" id="yRq33rBZcFHU1yg97kIT">
    <mxGraphModel>
      <root>
        <mxCell id="0" />
        <mxCell id="1" parent="0" />
      </root>
    </mxGraphModel>
  </diagram>
</mxfile>
